#VRML V2.0 utf8
# 3D model generated by easyeda2kicad.py (https://github.com/uPesy/easyeda2kicad.py)

Shape{
    appearance Appearance {
        material  Material 	{
            diffuseColor 0.7764705882352941 0.7568627450980392 0.7372549019607844
            specularColor 0.38823529411764707 0.3764705882352941 0.3686274509803922
            ambientIntensity 0.7605
            transparency 0.0
            shininess 0.5
        }
    }
    geometry IndexedFaceSet {
        ccw TRUE
        solid FALSE
        coord DEF co Coordinate {
            point [
                -0.8366 -1.1614 0.0787, -0.8366 -1.1614 0.0, -0.6634 -1.1614 0.0787, -0.6634 -1.1614 0.0, -0.6634 -0.9843 0.0787, -0.8366 -0.9843 0.0787, -0.8366 -0.9843 0.0, -0.6634 -0.9843 0.0, -0.999 -0.3338 0.0, -0.999 -0.4114 0.0, -0.999 -0.3338 0.0787, -0.999 -0.4114 0.0787, 0.8366 1.1614 0.0, 0.6634 1.1614 0.0, 0.8366 1.1614 0.0787, 0.6634 1.1614 0.0787, 0.3366 1.1614 0.0, 0.1634 1.1614 0.0, 0.3366 1.1614 0.0787, 0.1634 1.1614 0.0787, -0.1634 1.1614 0.0, -0.3366 1.1614 0.0, -0.1634 1.1614 0.0787, -0.3366 1.1614 0.0787, -0.6634 1.1614 0.0, -0.8366 1.1614 0.0, -0.6634 1.1614 0.0787, -0.8366 1.1614 0.0787, 0.999 -0.4114 0.0, 0.999 -0.3338 0.0, 0.999 -0.4114 0.0787, 0.999 -0.3338 0.0787, 0.8169 0.937 0.0787, 0.8366 0.937 0.0787, -0.8179 -0.442 0.0787, -0.8169 -0.4508 0.0787, 0.8169 -0.4508 0.0787, 0.8392 -0.3299 0.0787, 0.8318 -0.3252 0.0787, 0.8255 -0.4262 0.0787, -0.6595 0.9593 0.0787, -0.6624 0.9676 0.0787, -0.8169 0.937 0.0787, 0.8179 -0.442 0.0787, 0.8208 -0.4337 0.0787, -0.8366 0.937 0.0787, -0.6634 0.9764 0.0787, 0.8208 -0.3115 0.0787, 0.8179 -0.3031 0.0787, 0.8169 -0.2944 0.0787, -0.8208 -0.3115 0.0787, -0.8392 -0.4153 0.0787, -0.8318 -0.42 0.0787, -0.8318 -0.3252 0.0787, -0.8255 -0.4262 0.0787, 0.8255 -0.3189 0.0787, -0.8208 -0.4337 0.0787, -0.8255 -0.3189 0.0787, 0.3405 0.9593 0.0787, 0.1624 0.9676 0.0787, 0.3452 0.9518 0.0787, 0.1595 0.9593 0.0787, 0.6634 0.9764 0.0787, 0.6624 0.9676 0.0787, 0.1328 0.938 0.0787, 0.124 0.937 0.0787, -0.8169 -0.2944 0.0787, -0.1548 0.9518 0.0787, -0.1486 0.9456 0.0787, -0.1411 0.9409 0.0787, 0.8475 -0.3328 0.0787, 0.8318 -0.42 0.0787, 0.8392 -0.4153 0.0787, 0.6411 0.9409 0.0787, 0.6328 0.938 0.0787, 0.3514 0.9456 0.0787, -0.8179 -0.3031 0.0787, 0.3589 0.9409 0.0787, 0.1548 0.9518 0.0787, 0.1486 0.9456 0.0787, 0.1411 0.9409 0.0787, -0.3376 0.9676 0.0787, -0.3405 0.9593 0.0787, -0.1595 0.9593 0.0787, 0.8563 -0.4114 0.0787, 0.3366 0.9764 0.0787, -0.124 0.937 0.0787, -0.1328 0.938 0.0787, -0.8563 -0.3338 0.0787, 0.8475 -0.4124 0.0787, 0.8563 -0.3338 0.0787, 0.6595 0.9593 0.0787, 0.6548 0.9518 0.0787, 0.6486 0.9456 0.0787, 0.3376 0.9676 0.0787, 0.1634 0.9764 0.0787, -0.6328 0.938 0.0787, -0.6411 0.9409 0.0787, -0.6486 0.9456 0.0787, -0.6548 0.9518 0.0787, -0.8392 -0.3299 0.0787, -0.8475 -0.3328 0.0787, -0.8475 -0.4124 0.0787, -0.8563 -0.4114 0.0787, -0.3672 0.938 0.0787, -0.376 0.937 0.0787, -0.624 0.937 0.0787, 0.624 0.937 0.0787, 0.376 0.937 0.0787, 0.3672 0.938 0.0787, -0.1634 0.9764 0.0787, -0.3452 0.9518 0.0787, -0.3514 0.9456 0.0787, -0.3589 0.9409 0.0787, -0.1624 0.9676 0.0787, -0.3366 0.9764 0.0787, -0.8563 -0.3338 0.0, -0.8563 -0.4114 0.0, -0.8475 -0.4124 0.0, -0.8392 -0.4153 0.0, -0.8318 -0.42 0.0, -0.8255 -0.4262 0.0, -0.8208 -0.4337 0.0, -0.8179 -0.442 0.0, -0.8169 -0.4508 0.0, 0.8169 -0.4508 0.0, 0.8179 -0.442 0.0, 0.8208 -0.4337 0.0, 0.8255 -0.4262 0.0, 0.8318 -0.42 0.0, 0.8392 -0.4153 0.0, 0.8475 -0.4124 0.0, 0.8563 -0.4114 0.0, 0.8563 -0.3338 0.0, 0.8475 -0.3328 0.0, 0.8392 -0.3299 0.0, 0.8318 -0.3252 0.0, 0.8255 -0.3189 0.0, 0.8208 -0.3115 0.0, 0.8179 -0.3031 0.0, 0.8169 -0.2944 0.0, 0.8169 0.937 0.0, 0.8366 0.937 0.0, 0.6634 0.9764 0.0, 0.6624 0.9676 0.0, 0.6595 0.9593 0.0, 0.6548 0.9518 0.0, 0.6486 0.9456 0.0, 0.6411 0.9409 0.0, 0.6328 0.938 0.0, 0.624 0.937 0.0, 0.376 0.937 0.0, 0.3672 0.938 0.0, 0.3589 0.9409 0.0, 0.3514 0.9456 0.0, 0.3452 0.9518 0.0, 0.3405 0.9593 0.0, 0.3376 0.9676 0.0, 0.3366 0.9764 0.0, 0.1634 0.9764 0.0, 0.1624 0.9676 0.0, 0.1595 0.9593 0.0, 0.1548 0.9518 0.0, 0.1486 0.9456 0.0, 0.1411 0.9409 0.0, 0.1328 0.938 0.0, 0.124 0.937 0.0, -0.124 0.937 0.0, -0.1328 0.938 0.0, -0.1411 0.9409 0.0, -0.1486 0.9456 0.0, -0.1548 0.9518 0.0, -0.1595 0.9593 0.0, -0.1624 0.9676 0.0, -0.1634 0.9764 0.0, -0.3366 0.9764 0.0, -0.3376 0.9676 0.0, -0.3405 0.9593 0.0, -0.3452 0.9518 0.0, -0.3514 0.9456 0.0, -0.3589 0.9409 0.0, -0.3672 0.938 0.0, -0.376 0.937 0.0, -0.624 0.937 0.0, -0.6328 0.938 0.0, -0.6411 0.9409 0.0, -0.6486 0.9456 0.0, -0.6548 0.9518 0.0, -0.6595 0.9593 0.0, -0.6624 0.9676 0.0, -0.6634 0.9764 0.0, -0.8366 0.937 0.0, -0.8169 0.937 0.0, -0.8169 -0.2944 0.0, -0.8179 -0.3031 0.0, -0.8208 -0.3115 0.0, -0.8255 -0.3189 0.0, -0.8318 -0.3252 0.0, -0.8392 -0.3299 0.0, -0.8475 -0.3328 0.0, 0.1634 -1.1614 0.0, 0.3366 -1.1614 0.0, 0.1634 -1.1614 0.0787, 0.3366 -1.1614 0.0787, 0.3366 -0.9843 0.0787, 0.1634 -0.9843 0.0787, 0.1634 -0.9843 0.0, 0.3366 -0.9843 0.0, 0.6634 -1.1614 0.0, 0.8366 -1.1614 0.0, 0.6634 -1.1614 0.0787, 0.8366 -1.1614 0.0787, 0.8366 -0.9843 0.0787, 0.6634 -0.9843 0.0787, 0.6634 -0.9843 0.0, 0.8366 -0.9843 0.0, 0.8366 -1.2126 0.0, 0.6634 -1.2126 0.0, 0.8366 -1.2126 0.0787, 0.6634 -1.2126 0.0787, 0.3366 -1.2126 0.0, 0.1634 -1.2126 0.0, 0.3366 -1.2126 0.0787, 0.1634 -1.2126 0.0787, -0.6634 -1.2126 0.0, -0.8366 -1.2126 0.0, -0.6634 -1.2126 0.0787, -0.8366 -1.2126 0.0787, -0.3366 -1.1614 0.0, -0.3366 -1.1614 0.0787, -0.1634 -1.1614 0.0, -0.1634 -1.1614 0.0787, -0.1634 -1.2126 0.0, -0.3366 -1.2126 0.0, -0.1634 -1.2126 0.0787, -0.3366 -1.2126 0.0787
            ]
        }
        coordIndex [
            0,1,2,-1,2,1,3,-1,2,4,0,-1,0,4,5,-1,5,6,0,-1,0,6,1,-1,3,7,2,-1,2,7,4,-1,5,4,6,-1,6,4,7,-1,3,1,7,-1,7,1,6,-1,8,9,10,-1,10,9,11,-1,12,13,14,-1,14,13,15,-1,16,17,18,-1,18,17,19,-1,20,21,22,-1,22,21,23,-1,24,25,26,-1,26,25,27,-1,28,29,30,-1,30,29,31,-1,32,33,14,-1,34,35,36,-1,37,38,39,-1,40,41,42,-1,36,43,34,-1,34,43,44,-1,34,44,39,-1,27,45,26,-1,26,45,42,-1,26,42,46,-1,46,42,41,-1,47,48,34,-1,34,48,49,-1,34,49,50,-1,51,52,53,-1,53,52,54,-1,39,38,34,-1,34,38,55,-1,34,55,47,-1,54,56,53,-1,53,56,34,-1,53,34,57,-1,57,34,50,-1,58,59,60,-1,60,59,61,-1,14,15,32,-1,32,15,62,-1,32,62,63,-1,64,65,66,-1,67,66,68,-1,68,66,69,-1,37,39,70,-1,70,39,71,-1,70,71,72,-1,49,73,74,-1,60,66,75,-1,75,66,76,-1,75,76,77,-1,77,76,50,-1,61,78,60,-1,60,78,79,-1,60,79,66,-1,66,79,80,-1,66,80,64,-1,81,82,83,-1,83,82,67,-1,84,30,31,-1,85,18,19,-1,65,86,66,-1,66,86,87,-1,66,87,69,-1,88,10,11,-1,72,89,70,-1,70,89,84,-1,70,84,90,-1,90,84,31,-1,63,91,32,-1,32,91,92,-1,32,92,49,-1,49,92,93,-1,49,93,73,-1,58,94,59,-1,59,94,85,-1,59,85,95,-1,95,85,19,-1,96,97,66,-1,66,97,98,-1,66,98,42,-1,42,98,99,-1,42,99,40,-1,53,100,51,-1,51,100,101,-1,51,101,102,-1,102,101,88,-1,102,88,103,-1,103,88,11,-1,104,105,66,-1,66,105,106,-1,66,106,96,-1,74,107,49,-1,49,107,108,-1,49,108,50,-1,50,108,109,-1,50,109,77,-1,110,22,23,-1,82,111,67,-1,67,111,112,-1,67,112,66,-1,66,112,113,-1,66,113,104,-1,83,114,81,-1,81,114,110,-1,81,110,115,-1,115,110,23,-1,88,116,10,-1,10,116,8,-1,9,117,11,-1,11,117,103,-1,103,117,102,-1,102,117,118,-1,102,118,51,-1,51,118,119,-1,51,119,52,-1,52,119,120,-1,52,120,54,-1,54,120,121,-1,54,121,56,-1,56,121,122,-1,56,122,34,-1,34,122,123,-1,34,123,35,-1,35,123,124,-1,36,35,125,-1,125,35,124,-1,36,125,43,-1,43,125,126,-1,43,126,44,-1,44,126,127,-1,44,127,39,-1,39,127,128,-1,39,128,71,-1,71,128,129,-1,71,129,72,-1,72,129,130,-1,72,130,89,-1,89,130,131,-1,89,131,84,-1,84,131,132,-1,84,132,30,-1,30,132,28,-1,29,133,31,-1,31,133,90,-1,90,133,70,-1,70,133,134,-1,70,134,37,-1,37,134,135,-1,37,135,38,-1,38,135,136,-1,38,136,55,-1,55,136,137,-1,55,137,47,-1,47,137,138,-1,47,138,48,-1,48,138,139,-1,48,139,49,-1,49,139,140,-1,32,49,141,-1,141,49,140,-1,33,32,142,-1,142,32,141,-1,33,142,14,-1,14,142,12,-1,13,143,15,-1,15,143,62,-1,62,143,63,-1,63,143,144,-1,63,144,91,-1,91,144,145,-1,91,145,92,-1,92,145,146,-1,92,146,93,-1,93,146,147,-1,93,147,73,-1,73,147,148,-1,73,148,74,-1,74,148,149,-1,74,149,107,-1,107,149,150,-1,108,107,151,-1,151,107,150,-1,108,151,109,-1,109,151,152,-1,109,152,77,-1,77,152,153,-1,77,153,75,-1,75,153,154,-1,75,154,60,-1,60,154,155,-1,60,155,58,-1,58,155,156,-1,58,156,94,-1,94,156,157,-1,94,157,85,-1,85,157,158,-1,85,158,18,-1,18,158,16,-1,17,159,19,-1,19,159,95,-1,95,159,59,-1,59,159,160,-1,59,160,61,-1,61,160,161,-1,61,161,78,-1,78,161,162,-1,78,162,79,-1,79,162,163,-1,79,163,80,-1,80,163,164,-1,80,164,64,-1,64,164,165,-1,64,165,65,-1,65,165,166,-1,86,65,167,-1,167,65,166,-1,86,167,87,-1,87,167,168,-1,87,168,69,-1,69,168,169,-1,69,169,68,-1,68,169,170,-1,68,170,67,-1,67,170,171,-1,67,171,83,-1,83,171,172,-1,83,172,114,-1,114,172,173,-1,114,173,110,-1,110,173,174,-1,110,174,22,-1,22,174,20,-1,21,175,23,-1,23,175,115,-1,115,175,81,-1,81,175,176,-1,81,176,82,-1,82,176,177,-1,82,177,111,-1,111,177,178,-1,111,178,112,-1,112,178,179,-1,112,179,113,-1,113,179,180,-1,113,180,104,-1,104,180,181,-1,104,181,105,-1,105,181,182,-1,106,105,183,-1,183,105,182,-1,106,183,96,-1,96,183,184,-1,96,184,97,-1,97,184,185,-1,97,185,98,-1,98,185,186,-1,98,186,99,-1,99,186,187,-1,99,187,40,-1,40,187,188,-1,40,188,41,-1,41,188,189,-1,41,189,46,-1,46,189,190,-1,46,190,26,-1,26,190,24,-1,191,45,25,-1,25,45,27,-1,42,45,192,-1,192,45,191,-1,66,42,193,-1,193,42,192,-1,66,193,76,-1,76,193,194,-1,76,194,50,-1,50,194,195,-1,50,195,57,-1,57,195,196,-1,57,196,53,-1,53,196,197,-1,53,197,100,-1,100,197,198,-1,100,198,101,-1,101,198,199,-1,101,199,88,-1,88,199,116,-1,192,191,25,-1,25,24,192,-1,192,24,190,-1,192,190,189,-1,137,136,128,-1,189,188,192,-1,192,188,187,-1,192,187,193,-1,193,187,186,-1,193,186,194,-1,164,155,165,-1,165,155,166,-1,164,163,155,-1,155,163,162,-1,155,162,156,-1,131,136,135,-1,128,127,120,-1,120,127,126,-1,120,126,121,-1,121,126,122,-1,119,197,120,-1,120,197,196,-1,120,196,195,-1,131,130,136,-1,136,130,129,-1,136,129,128,-1,125,124,126,-1,126,124,123,-1,126,123,122,-1,178,177,174,-1,128,151,150,-1,145,144,141,-1,133,29,28,-1,159,17,16,-1,171,182,172,-1,172,182,181,-1,172,181,173,-1,178,174,179,-1,195,194,120,-1,120,194,186,-1,120,186,128,-1,128,186,185,-1,185,184,128,-1,128,184,183,-1,128,183,182,-1,128,167,166,-1,140,139,128,-1,128,139,138,-1,128,138,137,-1,12,142,13,-1,13,142,141,-1,13,141,143,-1,143,141,144,-1,135,134,131,-1,131,134,133,-1,131,133,132,-1,132,133,28,-1,162,161,156,-1,156,161,160,-1,156,160,157,-1,157,160,159,-1,157,159,158,-1,158,159,16,-1,173,181,174,-1,174,181,180,-1,174,180,179,-1,21,20,175,-1,175,20,174,-1,175,174,176,-1,176,174,177,-1,171,170,182,-1,182,170,169,-1,182,169,128,-1,128,169,168,-1,128,168,167,-1,155,154,166,-1,166,154,153,-1,166,153,128,-1,128,153,152,-1,128,152,151,-1,9,8,117,-1,117,8,116,-1,117,116,118,-1,118,116,199,-1,118,199,119,-1,119,199,198,-1,119,198,197,-1,150,149,128,-1,128,149,148,-1,128,148,140,-1,140,148,147,-1,140,147,141,-1,141,147,146,-1,141,146,145,-1,200,201,202,-1,202,201,203,-1,203,204,202,-1,202,204,205,-1,205,206,202,-1,202,206,200,-1,201,207,203,-1,203,207,204,-1,205,204,206,-1,206,204,207,-1,207,201,206,-1,206,201,200,-1,208,209,210,-1,210,209,211,-1,211,212,210,-1,210,212,213,-1,213,214,210,-1,210,214,208,-1,209,215,211,-1,211,215,212,-1,213,212,214,-1,214,212,215,-1,215,209,214,-1,214,209,208,-1,209,208,211,-1,211,208,210,-1,209,216,208,-1,208,216,217,-1,218,216,211,-1,211,216,209,-1,218,219,216,-1,216,219,217,-1,208,217,210,-1,210,217,219,-1,219,218,210,-1,210,218,211,-1,201,200,203,-1,203,200,202,-1,201,220,200,-1,200,220,221,-1,222,220,203,-1,203,220,201,-1,222,223,220,-1,220,223,221,-1,200,221,202,-1,202,221,223,-1,223,222,202,-1,202,222,203,-1,1,0,3,-1,3,0,2,-1,3,224,1,-1,1,224,225,-1,226,224,2,-1,2,224,3,-1,226,227,224,-1,224,227,225,-1,1,225,0,-1,0,225,227,-1,227,226,0,-1,0,226,2,-1,228,229,230,-1,230,229,231,-1,230,232,228,-1,228,232,233,-1,234,232,231,-1,231,232,230,-1,234,235,232,-1,232,235,233,-1,228,233,229,-1,229,233,235,-1,235,234,229,-1,229,234,231,-1,
        ]
    }
}
Shape{
    appearance Appearance {
        material  Material 	{
            diffuseColor 0.10980392156862745 0.10980392156862745 0.10980392156862745
            specularColor 0.0784313725490196 0.0784313725490196 0.0784313725490196
            ambientIntensity 0.1098
            transparency 0.0
            shininess 0.5
        }
    }
    geometry IndexedFaceSet {
        ccw TRUE
        solid FALSE
        coord DEF co Coordinate {
            point [
                0.999 -1.1614 0.0, 0.8366 -1.1614 0.0, 0.999 -0.7594 0.0, 0.8366 -0.9843 0.0, 0.0752 -0.7594 0.0, 0.6634 -1.1614 0.0, 0.3366 -1.1614 0.0, 0.6634 -0.9843 0.0, 0.3366 -0.9843 0.0, 0.0653 -0.7594 0.0, 0.0684 -0.7598 0.0, 0.1634 -0.9843 0.0, 0.0706 -0.7598 0.0, -0.0087 -0.7502 0.0, -0.0087 -0.7589 0.0, -0.0164 -0.7594 0.0, 0.0335 -0.7589 0.0, 0.0489 -0.7548 0.0, 0.0489 -0.7461 0.0, 0.0335 -0.6801 0.0, 0.1634 -1.1614 0.0, -0.0164 -1.1614 0.0, 0.0573 -0.7582 0.0, -0.0049 -0.7233 0.0, 0.023 -0.7233 0.0, 0.023 -0.7502 0.0, -0.0068 -0.6888 0.0, -0.0068 -0.6801 0.0, -0.0164 -0.4508 0.0, -0.0049 -0.7147 0.0, 0.023 -0.7147 0.0, 0.023 -0.6888 0.0, 0.1033 -0.7009 0.0, 0.0987 -0.6935 0.0, 0.144 -0.6801 0.0, 0.0879 -0.7562 0.0, 0.0942 -0.7522 0.0, 0.1142 -0.7589 0.0, 0.1002 -0.7459 0.0, 0.1142 -0.7502 0.0, 0.0751 -0.6887 0.0, 0.081 -0.6908 0.0, 0.0503 -0.7469 0.0, 0.0864 -0.6945 0.0, 0.0912 -0.6997 0.0, 0.0969 -0.7203 0.0, 0.0961 -0.7289 0.0, 0.094 -0.7356 0.0, 0.0765 -0.7504 0.0, 0.0691 -0.7512 0.0, 0.0822 -0.7483 0.0, 0.087 -0.745 0.0, 0.0907 -0.7411 0.0, 0.0587 -0.75 0.0, 0.8208 -0.4337 0.0, 0.8179 -0.442 0.0, 0.8169 -0.4508 0.0, 0.0945 -0.7058 0.0, 0.0965 -0.7142 0.0, 0.8392 -0.4153 0.0, 0.8475 -0.4124 0.0, 0.8563 -0.4114 0.0, 0.999 -0.4114 0.0, 0.0916 -0.6867 0.0, 0.1545 -0.6801 0.0, 0.1545 -0.7589 0.0, 0.0803 -0.7588 0.0, 0.8255 -0.4262 0.0, 0.8318 -0.42 0.0, 0.1044 -0.7384 0.0, 0.1067 -0.7301 0.0, 0.144 -0.7502 0.0, 0.1075 -0.721 0.0, 0.1064 -0.7098 0.0, 0.0841 -0.6824 0.0, 0.0754 -0.6798 0.0, 0.0674 -0.6792 0.0, 0.058 -0.6798 0.0, 0.0489 -0.6823 0.0, 0.0489 -0.6929 0.0, 0.0578 -0.6891 0.0, 0.0674 -0.6878 0.0, -0.0932 -0.7589 0.0, -0.0835 -0.7373 0.0, -0.079 -0.7443 0.0, -0.8169 -0.4508 0.0, -0.123 -0.6801 0.0, -0.1527 -0.7589 0.0, -0.1643 -0.7589 0.0, -0.999 -0.7594 0.0, -0.1335 -0.6801 0.0, -0.0725 -0.7505 0.0, -0.0643 -0.7553 0.0, -0.0552 -0.758 0.0, -0.999 -0.4114 0.0, -0.8563 -0.4114 0.0, -0.8475 -0.4124 0.0, -0.8392 -0.4153 0.0, -0.0455 -0.7589 0.0, -0.0241 -0.7589 0.0, -0.0241 -0.6801 0.0, -0.0463 -0.6801 0.0, -0.0755 -0.6904 0.0, -0.0811 -0.6966 0.0, -0.0848 -0.7033 0.0, -0.1047 -0.7589 0.0, -0.1122 -0.7368 0.0, -0.1448 -0.7368 0.0, -0.8318 -0.42 0.0, -0.8255 -0.4262 0.0, -0.8208 -0.4337 0.0, -0.8179 -0.442 0.0, -0.0577 -0.6813 0.0, -0.0669 -0.6846 0.0, -0.0754 -0.6903 0.0, -0.0869 -0.7111 0.0, -0.0874 -0.7185 0.0, -0.0863 -0.7291 0.0, -0.1634 -1.1614 0.0, -0.1634 -0.9843 0.0, -0.3366 -0.9843 0.0, -0.8366 -1.1614 0.0, -0.999 -1.1614 0.0, -0.8366 -0.9843 0.0, -0.6634 -0.9843 0.0, -0.6634 -1.1614 0.0, -0.3366 -1.1614 0.0
            ]
        }
        coordIndex [
            0,1,2,-1,2,1,3,-1,2,3,4,-1,5,6,7,-1,7,6,8,-1,9,10,11,-1,11,10,12,-1,11,12,8,-1,8,12,4,-1,8,4,7,-1,7,4,3,-1,13,14,15,-1,15,14,16,-1,17,16,18,-1,18,16,19,-1,20,21,11,-1,11,21,15,-1,11,15,9,-1,9,15,16,-1,9,16,22,-1,22,16,17,-1,23,24,25,-1,26,15,27,-1,27,15,28,-1,27,28,19,-1,25,13,23,-1,23,13,15,-1,23,15,29,-1,29,15,26,-1,29,26,30,-1,30,26,31,-1,32,33,34,-1,35,36,37,-1,37,36,38,-1,37,38,39,-1,40,41,42,-1,42,41,43,-1,42,43,44,-1,45,46,42,-1,42,46,47,-1,48,49,50,-1,50,49,51,-1,47,52,42,-1,42,52,51,-1,42,51,53,-1,53,51,49,-1,54,2,55,-1,55,2,56,-1,44,57,42,-1,42,57,58,-1,42,58,45,-1,59,60,2,-1,2,60,61,-1,2,61,62,-1,33,63,34,-1,34,63,28,-1,34,28,64,-1,64,28,56,-1,64,56,65,-1,56,2,65,-1,65,2,4,-1,65,4,37,-1,37,4,66,-1,37,66,35,-1,54,67,2,-1,2,67,68,-1,2,68,59,-1,38,69,39,-1,39,69,70,-1,39,70,71,-1,71,70,72,-1,71,72,34,-1,34,72,73,-1,34,73,32,-1,63,74,28,-1,28,74,75,-1,28,75,76,-1,76,77,28,-1,28,77,78,-1,28,78,19,-1,19,78,79,-1,19,79,18,-1,18,79,80,-1,18,80,42,-1,42,80,81,-1,42,81,40,-1,82,83,84,-1,85,28,86,-1,87,15,88,-1,88,15,89,-1,88,89,90,-1,84,91,82,-1,82,91,92,-1,82,92,93,-1,94,95,89,-1,89,95,96,-1,89,96,97,-1,98,99,15,-1,15,99,100,-1,15,100,28,-1,28,100,101,-1,102,103,86,-1,86,103,104,-1,93,98,82,-1,82,98,15,-1,82,15,105,-1,105,15,87,-1,105,87,106,-1,106,87,107,-1,97,108,89,-1,89,108,109,-1,89,109,110,-1,86,90,85,-1,85,90,89,-1,85,89,111,-1,111,89,110,-1,101,112,28,-1,28,112,113,-1,28,113,86,-1,86,113,114,-1,86,114,102,-1,104,115,86,-1,86,115,116,-1,86,116,82,-1,82,116,117,-1,82,117,83,-1,21,118,15,-1,15,118,119,-1,15,119,89,-1,89,119,120,-1,121,122,123,-1,123,122,89,-1,123,89,124,-1,124,89,120,-1,124,120,125,-1,125,120,126,-1,
        ]
    }
}
Shape{
    appearance Appearance {
        material  Material 	{
            diffuseColor 0.7764705882352941 0.7568627450980392 0.7372549019607844
            specularColor 0.38823529411764707 0.3764705882352941 0.3686274509803922
            ambientIntensity 0.7605
            transparency 0.0
            shininess 0.5
        }
    }
    geometry IndexedFaceSet {
        ccw TRUE
        solid FALSE
        coord DEF co Coordinate {
            point [
                0.8366 -0.9843 0.0787, 0.8366 -1.1614 0.0787, 0.6634 -0.9843 0.0787, 0.6634 -1.1614 0.0787, 0.6634 -0.9843 0.0, 0.6634 -1.1614 0.0, 0.8366 -0.9843 0.0, 0.8366 -1.1614 0.0, -0.6634 -0.9843 0.0787, -0.6634 -1.1614 0.0787, -0.8366 -0.9843 0.0787, -0.8366 -1.1614 0.0787, -0.8366 -0.9843 0.0, -0.8366 -1.1614 0.0, -0.6634 -0.9843 0.0, -0.6634 -1.1614 0.0, -0.1634 -0.9843 0.0787, -0.1634 -1.1614 0.0787, -0.3366 -0.9843 0.0787, -0.3366 -1.1614 0.0787, -0.3366 -0.9843 0.0, -0.3366 -1.1614 0.0, -0.1634 -0.9843 0.0, -0.1634 -1.1614 0.0, 0.3366 -0.9843 0.0787, 0.3366 -1.1614 0.0787, 0.1634 -0.9843 0.0787, 0.1634 -1.1614 0.0787, 0.1634 -0.9843 0.0, 0.1634 -1.1614 0.0, 0.3366 -0.9843 0.0, 0.3366 -1.1614 0.0, -0.8169 0.937 0.0787, -0.8366 0.937 0.0787, -0.8366 1.1614 0.0787, -0.6634 1.1614 0.0787, -0.6634 0.9764 0.0787, -0.6624 0.9676 0.0787, -0.6595 0.9593 0.0787, -0.6548 0.9518 0.0787, -0.6486 0.9456 0.0787, 0.8169 -0.4508 0.0787, -0.8169 -0.4508 0.0787, 0.8179 -0.442 0.0787, -0.8179 -0.442 0.0787, -0.8475 -0.3328 0.0787, -0.8392 -0.3299 0.0787, -0.8392 -0.4153 0.0787, -0.8318 -0.3252 0.0787, -0.8318 -0.42 0.0787, -0.8255 -0.3189 0.0787, 0.1411 0.9409 0.0787, 0.1486 0.9456 0.0787, 0.3452 0.9518 0.0787, 0.1548 0.9518 0.0787, 0.3405 0.9593 0.0787, 0.1595 0.9593 0.0787, 0.3376 0.9676 0.0787, 0.8255 -0.3189 0.0787, 0.8318 -0.3252 0.0787, 0.8255 -0.4262 0.0787, 0.8475 -0.4124 0.0787, 0.8392 -0.3299 0.0787, -0.8179 -0.3031 0.0787, -0.8169 -0.2944 0.0787, 0.6595 0.9593 0.0787, 0.6624 0.9676 0.0787, 0.8169 0.937 0.0787, 0.8366 1.1614 0.0787, 0.8366 0.937 0.0787, 0.6634 1.1614 0.0787, 0.6634 0.9764 0.0787, 0.8392 -0.4153 0.0787, 0.8318 -0.42 0.0787, -0.3452 0.9518 0.0787, -0.3405 0.9593 0.0787, -0.1634 0.9764 0.0787, -0.6411 0.9409 0.0787, -0.6328 0.938 0.0787, -0.8208 -0.3115 0.0787, -0.8255 -0.4262 0.0787, -0.8208 -0.4337 0.0787, -0.376 0.937 0.0787, -0.1548 0.9518 0.0787, -0.1486 0.9456 0.0787, -0.1411 0.9409 0.0787, -0.1328 0.938 0.0787, 0.3514 0.9456 0.0787, 0.124 0.937 0.0787, 0.1328 0.938 0.0787, 0.8563 -0.3338 0.0787, 0.999 -0.3338 0.0787, 0.999 -0.4114 0.0787, -0.8563 -0.4114 0.0787, -0.999 -0.4114 0.0787, -0.999 -0.3338 0.0787, 0.1634 0.9764 0.0787, 0.1634 1.1614 0.0787, 0.3366 1.1614 0.0787, -0.1595 0.9593 0.0787, -0.3672 0.938 0.0787, -0.1624 0.9676 0.0787, -0.3514 0.9456 0.0787, 0.8208 -0.4337 0.0787, 0.8475 -0.3328 0.0787, 0.8563 -0.4114 0.0787, -0.8475 -0.4124 0.0787, -0.8563 -0.3338 0.0787, 0.1624 0.9676 0.0787, 0.3366 0.9764 0.0787, -0.3589 0.9409 0.0787, -0.3366 1.1614 0.0787, -0.1634 1.1614 0.0787, -0.3366 0.9764 0.0787, -0.3376 0.9676 0.0787, -0.624 0.937 0.0787, 0.3589 0.9409 0.0787, -0.124 0.937 0.0787, 0.3672 0.938 0.0787, 0.376 0.937 0.0787, 0.624 0.937 0.0787, 0.8169 -0.2944 0.0787, 0.8179 -0.3031 0.0787, 0.8208 -0.3115 0.0787, 0.6328 0.938 0.0787, 0.6411 0.9409 0.0787, 0.6486 0.9456 0.0787, 0.6548 0.9518 0.0787, -0.8563 -0.3338 0.0, -0.999 -0.3338 0.0, -0.8563 -0.4114 0.0, -0.999 -0.4114 0.0, -0.8169 -0.4508 0.0, -0.8179 -0.442 0.0, -0.8208 -0.4337 0.0, -0.8255 -0.4262 0.0, -0.8318 -0.42 0.0, -0.8392 -0.4153 0.0, -0.8475 -0.4124 0.0, -0.0164 -0.4508 0.0, 0.8169 -0.4508 0.0, 0.8563 -0.4114 0.0, 0.8475 -0.4124 0.0, 0.8392 -0.4153 0.0, 0.8318 -0.42 0.0, 0.8255 -0.4262 0.0, 0.8208 -0.4337 0.0, 0.8179 -0.442 0.0, 0.999 -0.4114 0.0, 0.8563 -0.3338 0.0, 0.999 -0.3338 0.0, 0.8169 -0.2944 0.0, 0.8179 -0.3031 0.0, 0.8208 -0.3115 0.0, 0.8255 -0.3189 0.0, 0.8318 -0.3252 0.0, 0.8392 -0.3299 0.0, 0.8475 -0.3328 0.0, 0.8169 0.937 0.0, 0.8366 0.937 0.0, 0.8366 1.1614 0.0, 0.6634 0.9764 0.0, 0.6634 1.1614 0.0, 0.624 0.937 0.0, 0.6328 0.938 0.0, 0.6411 0.9409 0.0, 0.6486 0.9456 0.0, 0.6548 0.9518 0.0, 0.6595 0.9593 0.0, 0.6624 0.9676 0.0, 0.376 0.937 0.0, 0.3366 0.9764 0.0, 0.3376 0.9676 0.0, 0.3405 0.9593 0.0, 0.3452 0.9518 0.0, 0.3514 0.9456 0.0, 0.3589 0.9409 0.0, 0.3672 0.938 0.0, 0.3366 1.1614 0.0, 0.1634 0.9764 0.0, 0.1634 1.1614 0.0, 0.124 0.937 0.0, 0.1328 0.938 0.0, 0.1411 0.9409 0.0, 0.1486 0.9456 0.0, 0.1548 0.9518 0.0, 0.1595 0.9593 0.0, 0.1624 0.9676 0.0, -0.124 0.937 0.0, -0.1634 0.9764 0.0, -0.1624 0.9676 0.0, -0.1595 0.9593 0.0, -0.1548 0.9518 0.0, -0.1486 0.9456 0.0, -0.1411 0.9409 0.0, -0.1328 0.938 0.0, -0.1634 1.1614 0.0, -0.3366 0.9764 0.0, -0.3366 1.1614 0.0, -0.376 0.937 0.0, -0.3672 0.938 0.0, -0.3589 0.9409 0.0, -0.3514 0.9456 0.0, -0.3452 0.9518 0.0, -0.3405 0.9593 0.0, -0.3376 0.9676 0.0, -0.624 0.937 0.0, -0.6634 0.9764 0.0, -0.6624 0.9676 0.0, -0.6595 0.9593 0.0, -0.6548 0.9518 0.0, -0.6486 0.9456 0.0, -0.6411 0.9409 0.0, -0.6328 0.938 0.0, -0.6634 1.1614 0.0, -0.8366 0.937 0.0, -0.8366 1.1614 0.0, -0.8169 0.937 0.0, -0.8169 -0.2944 0.0, -0.8475 -0.3328 0.0, -0.8392 -0.3299 0.0, -0.8318 -0.3252 0.0, -0.8255 -0.3189 0.0, -0.8208 -0.3115 0.0, -0.8179 -0.3031 0.0
            ]
        }
        coordIndex [
            0,1,2,-1,2,1,3,-1,4,2,5,-1,5,2,3,-1,6,7,0,-1,0,7,1,-1,0,2,6,-1,6,2,4,-1,8,9,10,-1,10,9,11,-1,12,10,13,-1,13,10,11,-1,14,15,8,-1,8,15,9,-1,8,10,14,-1,14,10,12,-1,16,17,18,-1,18,17,19,-1,20,18,21,-1,21,18,19,-1,22,23,16,-1,16,23,17,-1,16,18,22,-1,22,18,20,-1,24,25,26,-1,26,25,27,-1,28,26,29,-1,29,26,27,-1,30,31,24,-1,24,31,25,-1,24,26,30,-1,30,26,28,-1,32,33,34,-1,34,35,32,-1,32,35,36,-1,32,36,37,-1,37,38,32,-1,32,38,39,-1,32,39,40,-1,41,42,43,-1,43,42,44,-1,45,46,47,-1,47,46,48,-1,47,48,49,-1,49,48,50,-1,51,52,53,-1,53,52,54,-1,53,54,55,-1,55,54,56,-1,55,56,57,-1,58,59,60,-1,61,59,62,-1,63,64,43,-1,65,66,67,-1,68,69,70,-1,70,69,67,-1,70,67,71,-1,71,67,66,-1,61,72,59,-1,59,72,73,-1,59,73,60,-1,74,75,76,-1,77,78,60,-1,50,79,49,-1,49,79,63,-1,49,63,80,-1,80,63,43,-1,80,43,81,-1,81,43,44,-1,82,83,84,-1,60,85,86,-1,87,88,53,-1,53,88,89,-1,53,89,51,-1,90,91,92,-1,93,94,95,-1,96,97,98,-1,83,82,99,-1,99,82,100,-1,99,100,101,-1,74,76,102,-1,40,77,32,-1,32,77,60,-1,32,60,64,-1,64,60,103,-1,64,103,43,-1,62,104,61,-1,61,104,90,-1,61,90,105,-1,105,90,92,-1,47,106,45,-1,45,106,93,-1,45,93,107,-1,107,93,95,-1,56,108,57,-1,57,108,96,-1,57,96,109,-1,109,96,98,-1,101,100,76,-1,76,100,110,-1,76,110,102,-1,111,112,113,-1,113,112,76,-1,113,76,114,-1,114,76,75,-1,84,85,82,-1,82,85,60,-1,82,60,115,-1,115,60,78,-1,87,116,88,-1,88,116,60,-1,88,60,117,-1,117,60,86,-1,116,118,60,-1,60,118,119,-1,60,119,120,-1,121,122,60,-1,60,122,123,-1,60,123,58,-1,120,124,60,-1,60,124,125,-1,60,125,121,-1,121,125,126,-1,121,126,67,-1,67,126,127,-1,67,127,65,-1,128,107,129,-1,129,107,95,-1,130,131,93,-1,93,131,94,-1,42,132,133,-1,42,133,44,-1,44,133,134,-1,44,134,81,-1,81,134,135,-1,81,135,80,-1,80,135,136,-1,80,136,49,-1,49,136,137,-1,49,137,47,-1,47,137,138,-1,47,138,106,-1,106,138,130,-1,106,130,93,-1,132,42,139,-1,139,42,41,-1,139,41,140,-1,105,141,142,-1,105,142,61,-1,61,142,143,-1,61,143,72,-1,72,143,144,-1,72,144,73,-1,73,144,145,-1,73,145,60,-1,60,145,146,-1,60,146,103,-1,103,146,147,-1,103,147,43,-1,43,147,140,-1,43,140,41,-1,141,105,148,-1,148,105,92,-1,149,150,90,-1,90,150,91,-1,121,151,152,-1,121,152,122,-1,122,152,153,-1,122,153,123,-1,123,153,154,-1,123,154,58,-1,58,154,155,-1,58,155,59,-1,59,155,156,-1,59,156,62,-1,62,156,157,-1,62,157,104,-1,104,157,149,-1,104,149,90,-1,121,67,151,-1,151,67,158,-1,67,69,158,-1,158,69,159,-1,159,69,160,-1,160,69,68,-1,161,162,71,-1,71,162,70,-1,120,163,164,-1,120,164,124,-1,124,164,165,-1,124,165,125,-1,125,165,166,-1,125,166,126,-1,126,166,167,-1,126,167,127,-1,127,167,168,-1,127,168,65,-1,65,168,169,-1,65,169,66,-1,66,169,161,-1,66,161,71,-1,120,119,163,-1,163,119,170,-1,109,171,172,-1,109,172,57,-1,57,172,173,-1,57,173,55,-1,55,173,174,-1,55,174,53,-1,53,174,175,-1,53,175,87,-1,87,175,176,-1,87,176,116,-1,116,176,177,-1,116,177,118,-1,118,177,170,-1,118,170,119,-1,171,109,178,-1,178,109,98,-1,179,180,96,-1,96,180,97,-1,88,181,182,-1,88,182,89,-1,89,182,183,-1,89,183,51,-1,51,183,184,-1,51,184,52,-1,52,184,185,-1,52,185,54,-1,54,185,186,-1,54,186,56,-1,56,186,187,-1,56,187,108,-1,108,187,179,-1,108,179,96,-1,88,117,181,-1,181,117,188,-1,76,189,190,-1,76,190,101,-1,101,190,191,-1,101,191,99,-1,99,191,192,-1,99,192,83,-1,83,192,193,-1,83,193,84,-1,84,193,194,-1,84,194,85,-1,85,194,195,-1,85,195,86,-1,86,195,188,-1,86,188,117,-1,189,76,196,-1,196,76,112,-1,197,198,113,-1,113,198,111,-1,82,199,200,-1,82,200,100,-1,100,200,201,-1,100,201,110,-1,110,201,202,-1,110,202,102,-1,102,202,203,-1,102,203,74,-1,74,203,204,-1,74,204,75,-1,75,204,205,-1,75,205,114,-1,114,205,197,-1,114,197,113,-1,82,115,199,-1,199,115,206,-1,36,207,208,-1,36,208,37,-1,37,208,209,-1,37,209,38,-1,38,209,210,-1,38,210,39,-1,39,210,211,-1,39,211,40,-1,40,211,212,-1,40,212,77,-1,77,212,213,-1,77,213,78,-1,78,213,206,-1,78,206,115,-1,207,36,214,-1,214,36,35,-1,33,215,34,-1,34,215,216,-1,33,32,215,-1,215,32,217,-1,32,64,217,-1,217,64,218,-1,107,128,219,-1,107,219,45,-1,45,219,220,-1,45,220,46,-1,46,220,221,-1,46,221,48,-1,48,221,222,-1,48,222,50,-1,50,222,223,-1,50,223,79,-1,79,223,224,-1,79,224,63,-1,63,224,218,-1,63,218,64,-1,
        ]
    }
}
Shape{
    appearance Appearance {
        material  Material 	{
            diffuseColor 0.4117647058823529 0.4117647058823529 0.4117647058823529
            specularColor 0.16470588235294117 0.16470588235294117 0.16470588235294117
            ambientIntensity 0.4118
            transparency 0.0
            shininess 0.5
        }
    }
    geometry IndexedFaceSet {
        ccw TRUE
        solid FALSE
        coord DEF co Coordinate {
            point [
                -0.5767 -0.9065 0.4055, -0.5649 -0.878 0.4055, -0.6791 -0.8474 0.4055, -0.5609 -0.8474 0.4055, -0.5649 -0.8168 0.4055, -0.6485 -0.9615 0.4055, -0.62 -0.9497 0.4055, -0.5955 -0.9309 0.4055, -0.7381 -0.9497 0.4055, -0.7096 -0.9615 0.4055, -0.6791 -0.9656 0.4055, -0.7932 -0.878 0.4055, -0.7814 -0.9065 0.4055, -0.7626 -0.9309 0.4055, -0.7814 -0.7883 0.4055, -0.7932 -0.8168 0.4055, -0.7972 -0.8474 0.4055, -0.7096 -0.7333 0.4055, -0.7381 -0.7451 0.4055, -0.7626 -0.7638 0.4055, -0.62 -0.7451 0.4055, -0.6485 -0.7333 0.4055, -0.6791 -0.7292 0.4055, -0.5767 -0.7883 0.4055, -0.5955 -0.7638 0.4055, -0.5609 -0.8474 0.4134, -0.5649 -0.8168 0.4134, -0.5767 -0.7883 0.4134, -0.5955 -0.7638 0.4134, -0.62 -0.7451 0.4134, -0.6485 -0.7333 0.4134, -0.6791 -0.7292 0.4134, -0.7096 -0.7333 0.4134, -0.7381 -0.7451 0.4134, -0.7626 -0.7638 0.4134, -0.7814 -0.7883 0.4134, -0.7932 -0.8168 0.4134, -0.7972 -0.8474 0.4134, -0.7932 -0.878 0.4134, -0.7814 -0.9065 0.4134, -0.7626 -0.9309 0.4134, -0.7381 -0.9497 0.4134, -0.7096 -0.9615 0.4134, -0.6791 -0.9656 0.4134, -0.6485 -0.9615 0.4134, -0.62 -0.9497 0.4134, -0.5955 -0.9309 0.4134, -0.5767 -0.9065 0.4134, -0.5649 -0.878 0.4134
            ]
        }
        coordIndex [
            0,1,2,-1,2,1,3,-1,2,3,4,-1,5,6,2,-1,2,6,7,-1,2,7,0,-1,8,9,2,-1,2,9,10,-1,2,10,5,-1,11,12,2,-1,2,12,13,-1,2,13,8,-1,14,15,2,-1,2,15,16,-1,2,16,11,-1,17,18,2,-1,2,18,19,-1,2,19,14,-1,20,21,2,-1,2,21,22,-1,2,22,17,-1,4,23,2,-1,2,23,24,-1,2,24,20,-1,3,25,4,-1,4,25,26,-1,4,26,23,-1,23,26,27,-1,23,27,24,-1,24,27,28,-1,24,28,20,-1,20,28,29,-1,20,29,21,-1,21,29,30,-1,21,30,22,-1,22,30,31,-1,22,31,17,-1,17,31,32,-1,17,32,18,-1,18,32,33,-1,18,33,19,-1,19,33,34,-1,19,34,14,-1,14,34,35,-1,14,35,15,-1,15,35,36,-1,15,36,16,-1,16,36,37,-1,16,37,11,-1,11,37,38,-1,11,38,12,-1,12,38,39,-1,12,39,13,-1,13,39,40,-1,13,40,8,-1,8,40,41,-1,8,41,9,-1,9,41,42,-1,9,42,10,-1,10,42,43,-1,10,43,5,-1,5,43,44,-1,5,44,6,-1,6,44,45,-1,6,45,7,-1,7,45,46,-1,7,46,0,-1,0,46,47,-1,0,47,1,-1,1,47,48,-1,1,48,3,-1,3,48,25,-1,
        ]
    }
}
Shape{
    appearance Appearance {
        material  Material 	{
            diffuseColor 0.10980392156862745 0.10980392156862745 0.10980392156862745
            specularColor 0.0784313725490196 0.0784313725490196 0.0784313725490196
            ambientIntensity 0.1098
            transparency 0.0
            shininess 0.5
        }
    }
    geometry IndexedFaceSet {
        ccw TRUE
        solid FALSE
        coord DEF co Coordinate {
            point [
                0.8169 -0.2944 0.0, 0.8169 0.937 0.0, 0.8366 0.937 0.0, 0.8366 1.1614 0.0, 0.999 1.1614 0.0, 0.999 -0.3338 0.0, 0.8563 -0.3338 0.0, 0.8179 -0.3031 0.0, 0.8318 -0.3252 0.0, 0.8255 -0.3189 0.0, 0.8392 -0.3299 0.0, 0.8475 -0.3328 0.0, 0.8208 -0.3115 0.0, 0.6634 1.1614 0.0, 0.6634 0.9764 0.0, 0.624 0.937 0.0, 0.6624 0.9676 0.0, 0.6595 0.9593 0.0, 0.3589 0.9409 0.0, 0.3514 0.9456 0.0, 0.3366 0.9764 0.0, 0.6548 0.9518 0.0, 0.6486 0.9456 0.0, 0.6328 0.938 0.0, 0.6411 0.9409 0.0, 0.3366 1.1614 0.0, 0.376 0.937 0.0, 0.3672 0.938 0.0, 0.3452 0.9518 0.0, 0.3405 0.9593 0.0, 0.3376 0.9676 0.0, 0.1328 0.938 0.0, 0.124 0.937 0.0, 0.1634 0.9764 0.0, 0.1548 0.9518 0.0, 0.1486 0.9456 0.0, 0.1595 0.9593 0.0, 0.1624 0.9676 0.0, 0.1411 0.9409 0.0, -0.1328 0.938 0.0, -0.1634 0.9764 0.0, -0.124 0.937 0.0, -0.1634 1.1614 0.0, 0.1634 1.1614 0.0, -0.1486 0.9456 0.0, -0.1548 0.9518 0.0, -0.1595 0.9593 0.0, -0.1411 0.9409 0.0, -0.1624 0.9676 0.0, -0.376 0.937 0.0, -0.624 0.937 0.0, -0.6634 0.9764 0.0, -0.3405 0.9593 0.0, -0.3452 0.9518 0.0, -0.3376 0.9676 0.0, -0.3514 0.9456 0.0, -0.3589 0.9409 0.0, -0.6634 1.1614 0.0, -0.3366 1.1614 0.0, -0.3366 0.9764 0.0, -0.3672 0.938 0.0, -0.6595 0.9593 0.0, -0.6411 0.9409 0.0, -0.6548 0.9518 0.0, -0.6486 0.9456 0.0, -0.6328 0.938 0.0, -0.6624 0.9676 0.0, -0.999 -0.3338 0.0, -0.999 1.1614 0.0, -0.8366 0.937 0.0, -0.8366 1.1614 0.0, -0.8563 -0.3338 0.0, -0.8169 0.937 0.0, -0.8169 -0.2944 0.0, -0.8179 -0.3031 0.0, -0.8208 -0.3115 0.0, -0.8255 -0.3189 0.0, -0.8318 -0.3252 0.0, -0.8392 -0.3299 0.0, -0.8475 -0.3328 0.0, -0.999 -1.1614 0.0, -0.999 -1.1614 0.0787, -0.999 -0.7594 0.0, -0.999 -0.4114 0.0787, -0.999 -0.4114 0.0, -0.999 1.1614 0.0787, -0.999 -0.3338 0.0787, 0.8366 -1.1614 0.0, 0.999 -1.1614 0.0, 0.8366 -1.1614 0.0787, 0.999 -1.1614 0.0787, 0.3366 -1.1614 0.0787, 0.3366 -1.1614 0.0, 0.6634 -1.1614 0.0787, 0.6634 -1.1614 0.0, 0.1634 -1.1614 0.0, 0.1634 -1.1614 0.0787, -0.0164 -1.1614 0.0, -0.1634 -1.1614 0.0787, -0.1634 -1.1614 0.0, -0.6634 -1.1614 0.0, -0.3366 -1.1614 0.0, -0.6634 -1.1614 0.0787, -0.3366 -1.1614 0.0787, -0.8366 -1.1614 0.0787, -0.8366 -1.1614 0.0, -0.8366 1.1614 0.0787, -0.3366 1.1614 0.0787, -0.6634 1.1614 0.0787, 0.1634 1.1614 0.0787, -0.1634 1.1614 0.0787, 0.6634 1.1614 0.0787, 0.3366 1.1614 0.0787, 0.999 1.1614 0.0787, 0.8366 1.1614 0.0787, -0.9596 -1.122 0.4134, -0.9596 1.122 0.4134, -0.7096 -0.9615 0.4134, -0.7381 -0.9497 0.4134, -0.5609 -0.8474 0.4134, -0.5649 -0.878 0.4134, 0.9596 -1.122 0.4134, -0.5767 -0.9065 0.4134, -0.5955 -0.9309 0.4134, -0.7626 -0.9309 0.4134, -0.7814 -0.9065 0.4134, -0.7932 -0.878 0.4134, -0.62 -0.9497 0.4134, -0.6485 -0.9615 0.4134, -0.6791 -0.9656 0.4134, -0.7096 -0.7333 0.4134, -0.7381 -0.7451 0.4134, -0.7626 -0.7638 0.4134, -0.7972 -0.8474 0.4134, -0.7932 -0.8168 0.4134, -0.7814 -0.7883 0.4134, -0.6791 -0.7292 0.4134, -0.6485 -0.7333 0.4134, 0.9596 1.122 0.4134, -0.62 -0.7451 0.4134, -0.5955 -0.7638 0.4134, -0.5767 -0.7883 0.4134, -0.5649 -0.8168 0.4134, 0.999 -0.3338 0.0787, 0.999 -0.4114 0.0, 0.999 -0.4114 0.0787, 0.999 -0.7594 0.0
            ]
        }
        coordIndex [
            0,1,2,-1,3,4,2,-1,2,4,5,-1,2,5,0,-1,0,5,6,-1,0,6,7,-1,8,9,10,-1,10,9,11,-1,11,9,6,-1,6,9,12,-1,6,12,7,-1,13,14,15,-1,15,14,16,-1,15,16,17,-1,18,19,20,-1,17,21,15,-1,15,21,22,-1,15,22,23,-1,23,22,24,-1,13,15,25,-1,25,15,26,-1,25,26,20,-1,20,26,27,-1,20,27,18,-1,28,29,19,-1,19,29,30,-1,19,30,20,-1,31,32,33,-1,34,35,36,-1,36,35,37,-1,37,35,33,-1,33,35,38,-1,33,38,31,-1,39,40,41,-1,41,40,42,-1,41,42,32,-1,32,42,43,-1,32,43,33,-1,44,45,46,-1,39,47,40,-1,40,47,44,-1,40,44,48,-1,48,44,46,-1,49,50,51,-1,52,53,54,-1,54,53,55,-1,54,55,56,-1,57,58,51,-1,51,58,59,-1,51,59,49,-1,49,59,54,-1,49,54,60,-1,60,54,56,-1,61,62,63,-1,63,62,64,-1,50,65,51,-1,51,65,62,-1,51,62,66,-1,66,62,61,-1,67,68,69,-1,69,68,70,-1,67,69,71,-1,71,69,72,-1,71,72,73,-1,73,74,71,-1,71,74,75,-1,71,75,76,-1,77,78,76,-1,76,78,79,-1,76,79,71,-1,80,81,82,-1,82,81,83,-1,82,83,84,-1,85,68,86,-1,86,68,67,-1,87,88,89,-1,89,88,90,-1,91,92,93,-1,93,92,94,-1,95,96,97,-1,97,96,98,-1,97,98,99,-1,100,101,102,-1,102,101,103,-1,81,80,104,-1,104,80,105,-1,68,85,70,-1,70,85,106,-1,58,57,107,-1,107,57,108,-1,43,42,109,-1,109,42,110,-1,13,25,111,-1,111,25,112,-1,113,4,114,-1,114,4,3,-1,115,116,85,-1,85,86,115,-1,115,86,83,-1,115,83,81,-1,117,118,115,-1,119,120,121,-1,121,120,122,-1,121,122,123,-1,118,124,115,-1,115,124,125,-1,115,125,126,-1,123,127,121,-1,121,127,128,-1,121,128,115,-1,115,128,129,-1,115,129,117,-1,130,116,131,-1,131,116,132,-1,126,133,115,-1,115,133,134,-1,115,134,116,-1,116,134,135,-1,116,135,132,-1,130,136,116,-1,116,136,137,-1,116,137,138,-1,138,137,139,-1,139,140,138,-1,138,140,141,-1,138,141,121,-1,121,141,142,-1,121,142,119,-1,113,114,138,-1,138,114,111,-1,111,112,138,-1,138,112,109,-1,138,109,116,-1,116,109,110,-1,116,110,107,-1,107,108,116,-1,116,108,106,-1,116,106,85,-1,5,4,143,-1,143,4,113,-1,144,145,146,-1,146,145,90,-1,146,90,88,-1,81,104,115,-1,115,104,102,-1,102,103,115,-1,115,103,98,-1,115,98,121,-1,121,98,96,-1,121,96,91,-1,91,93,121,-1,121,93,89,-1,121,89,90,-1,113,138,143,-1,143,138,121,-1,143,121,145,-1,145,121,90,-1,
        ]
    }
}
Shape{
    appearance Appearance {
        material  Material 	{
            diffuseColor 0.7764705882352941 0.7568627450980392 0.7372549019607844
            specularColor 0.38823529411764707 0.3764705882352941 0.3686274509803922
            ambientIntensity 0.7605
            transparency 0.0
            shininess 0.5
        }
    }
    geometry IndexedFaceSet {
        ccw TRUE
        solid FALSE
        coord DEF co Coordinate {
            point [
                -0.1149 -0.7281 0.0039, -0.1122 -0.7368 0.0039, -0.1412 -0.7281 0.0039, -0.1448 -0.7368 0.0039, -0.1266 -0.6953 0.0039, -0.123 -0.6801 0.0039, -0.0932 -0.7589 0.0039, -0.1047 -0.7589 0.0039, -0.1274 -0.6925 0.0039, -0.1279 -0.6897 0.0039, -0.1335 -0.6801 0.0039, -0.1282 -0.6897 0.0039, -0.1287 -0.6925 0.0039, -0.1294 -0.6953 0.0039, -0.1643 -0.7589 0.0039, -0.1527 -0.7589 0.0039, -0.1448 -0.7368 0.0, -0.1527 -0.7589 0.0, -0.1122 -0.7368 0.0, -0.1047 -0.7589 0.0, -0.0932 -0.7589 0.0, -0.123 -0.6801 0.0, -0.1335 -0.6801 0.0, -0.1643 -0.7589 0.0, -0.1294 -0.6953 0.0, -0.1287 -0.6925 0.0, -0.1282 -0.6897 0.0, -0.1279 -0.6897 0.0, -0.1274 -0.6925 0.0, -0.1266 -0.6953 0.0, -0.1149 -0.7281 0.0, -0.1412 -0.7281 0.0, -0.0463 -0.6801 0.0039, -0.0463 -0.6801 0.0, -0.0241 -0.6801 0.0039, -0.0241 -0.6801 0.0, -0.0577 -0.6813 0.0039, -0.0577 -0.6813 0.0, -0.0669 -0.6846 0.0039, -0.0669 -0.6846 0.0, -0.0754 -0.6903 0.0039, -0.0754 -0.6903 0.0, -0.0755 -0.6904 0.0039, -0.0755 -0.6904 0.0, -0.0811 -0.6966 0.0039, -0.0811 -0.6966 0.0, -0.0848 -0.7033 0.0039, -0.0848 -0.7033 0.0, -0.0869 -0.7111 0.0039, -0.0869 -0.7111 0.0, -0.0874 -0.7185 0.0039, -0.0874 -0.7185 0.0, -0.0863 -0.7291 0.0039, -0.0863 -0.7291 0.0, -0.0835 -0.7373 0.0039, -0.0835 -0.7373 0.0, -0.079 -0.7443 0.0039, -0.079 -0.7443 0.0, -0.0725 -0.7505 0.0039, -0.0725 -0.7505 0.0, -0.0643 -0.7553 0.0039, -0.0643 -0.7553 0.0, -0.0552 -0.758 0.0039, -0.0552 -0.758 0.0, -0.0455 -0.7589 0.0039, -0.0455 -0.7589 0.0, -0.0241 -0.7589 0.0039, -0.0241 -0.7589 0.0, -0.0716 -0.6998 0.0039, -0.0678 -0.6958 0.0039, -0.0621 -0.692 0.0039, -0.0556 -0.6898 0.0039, -0.0462 -0.6888 0.0039, -0.0346 -0.6888 0.0039, -0.0346 -0.7502 0.0039, -0.0458 -0.7502 0.0039, -0.0541 -0.7495 0.0039, -0.0607 -0.7474 0.0039, -0.0661 -0.7442 0.0039, -0.0705 -0.7398 0.0039, -0.0738 -0.7344 0.0039, -0.0762 -0.727 0.0039, -0.0769 -0.7187 0.0039, -0.0762 -0.7109 0.0039, -0.0744 -0.7047 0.0039, -0.0458 -0.7502 0.0, -0.0346 -0.7502 0.0, -0.0541 -0.7495 0.0, -0.0607 -0.7474 0.0, -0.0661 -0.7442 0.0, -0.0705 -0.7398 0.0, -0.0738 -0.7344 0.0, -0.0762 -0.727 0.0, -0.0769 -0.7187 0.0, -0.0762 -0.7109 0.0, -0.0744 -0.7047 0.0, -0.0716 -0.6998 0.0, -0.0678 -0.6958 0.0, -0.0621 -0.692 0.0, -0.0556 -0.6898 0.0, -0.0462 -0.6888 0.0, -0.0346 -0.6888 0.0, 0.0335 -0.6801 0.0039, 0.0335 -0.6801 0.0, 0.0335 -0.7589 0.0039, 0.0335 -0.7589 0.0, -0.0068 -0.6801 0.0039, -0.0068 -0.6801 0.0, -0.0068 -0.6888 0.0039, -0.0068 -0.6888 0.0, 0.023 -0.6888 0.0039, 0.023 -0.6888 0.0, 0.023 -0.7147 0.0039, 0.023 -0.7147 0.0, -0.0049 -0.7147 0.0039, -0.0049 -0.7147 0.0, -0.0049 -0.7233 0.0039, -0.0049 -0.7233 0.0, 0.023 -0.7233 0.0039, 0.023 -0.7233 0.0, 0.023 -0.7502 0.0039, 0.023 -0.7502 0.0, -0.0087 -0.7502 0.0039, -0.0087 -0.7502 0.0, -0.0087 -0.7589 0.0039, -0.0087 -0.7589 0.0, 0.0752 -0.7594 0.0, 0.0706 -0.7598 0.0, 0.0706 -0.7598 0.0039, 0.0803 -0.7588 0.0, 0.0803 -0.7588 0.0039, 0.0879 -0.7562 0.0039, 0.0879 -0.7562 0.0, 0.0942 -0.7522 0.0039, 0.0942 -0.7522 0.0, 0.1002 -0.7459 0.0039, 0.1002 -0.7459 0.0, 0.1044 -0.7384 0.0039, 0.1044 -0.7384 0.0, 0.1067 -0.7301 0.0039, 0.1067 -0.7301 0.0, 0.1075 -0.721 0.0039, 0.1075 -0.721 0.0, 0.1064 -0.7098 0.0039, 0.1064 -0.7098 0.0, 0.1033 -0.7009 0.0039, 0.1033 -0.7009 0.0, 0.0987 -0.6935 0.0039, 0.0987 -0.6935 0.0, 0.0916 -0.6867 0.0039, 0.0916 -0.6867 0.0, 0.0841 -0.6824 0.0039, 0.0841 -0.6824 0.0, 0.0754 -0.6798 0.0039, 0.0754 -0.6798 0.0, 0.0674 -0.6792 0.0039, 0.0674 -0.6792 0.0, 0.058 -0.6798 0.0039, 0.058 -0.6798 0.0, 0.0489 -0.6823 0.0039, 0.0489 -0.6823 0.0, 0.0489 -0.6929 0.0039, 0.0489 -0.6929 0.0, 0.0578 -0.6891 0.0039, 0.0578 -0.6891 0.0, 0.0674 -0.6878 0.0039, 0.0674 -0.6878 0.0, 0.0751 -0.6887 0.0039, 0.0751 -0.6887 0.0, 0.081 -0.6908 0.0039, 0.081 -0.6908 0.0, 0.0864 -0.6945 0.0039, 0.0864 -0.6945 0.0, 0.0912 -0.6997 0.0039, 0.0912 -0.6997 0.0, 0.0945 -0.7058 0.0039, 0.0945 -0.7058 0.0, 0.0965 -0.7142 0.0039, 0.0965 -0.7142 0.0, 0.0969 -0.7203 0.0039, 0.0969 -0.7203 0.0, 0.0961 -0.7289 0.0039, 0.0961 -0.7289 0.0, 0.094 -0.7356 0.0039, 0.094 -0.7356 0.0, 0.0907 -0.7411 0.0039, 0.0907 -0.7411 0.0, 0.087 -0.745 0.0039, 0.087 -0.745 0.0, 0.0822 -0.7483 0.0039, 0.0822 -0.7483 0.0, 0.0765 -0.7504 0.0039, 0.0765 -0.7504 0.0, 0.0691 -0.7512 0.0039, 0.0691 -0.7512 0.0, 0.0587 -0.75 0.0039, 0.0587 -0.75 0.0, 0.0503 -0.7469 0.0039, 0.0503 -0.7469 0.0, 0.0489 -0.7461 0.0039, 0.0489 -0.7461 0.0, 0.0489 -0.7548 0.0039, 0.0489 -0.7548 0.0, 0.0573 -0.7582 0.0, 0.0573 -0.7582 0.0039, 0.0653 -0.7594 0.0, 0.0684 -0.7598 0.0039, 0.0684 -0.7598 0.0, 0.1545 -0.6801 0.0039, 0.1545 -0.6801 0.0, 0.1545 -0.7589 0.0039, 0.1545 -0.7589 0.0, 0.144 -0.6801 0.0039, 0.144 -0.6801 0.0, 0.144 -0.7502 0.0039, 0.144 -0.7502 0.0, 0.1142 -0.7502 0.0039, 0.1142 -0.7502 0.0, 0.1142 -0.7589 0.0039, 0.1142 -0.7589 0.0
            ]
        }
        coordIndex [
            0,1,2,-1,2,1,3,-1,4,5,0,-1,0,5,6,-1,0,6,1,-1,1,6,7,-1,4,8,5,-1,5,8,9,-1,5,9,10,-1,10,9,11,-1,10,11,12,-1,12,13,10,-1,10,13,2,-1,10,2,14,-1,14,2,3,-1,14,3,15,-1,3,16,15,-1,15,16,17,-1,1,18,3,-1,3,18,16,-1,7,19,1,-1,1,19,18,-1,6,20,7,-1,7,20,19,-1,5,21,6,-1,6,21,20,-1,10,22,5,-1,5,22,21,-1,14,23,10,-1,10,23,22,-1,14,15,23,-1,23,15,17,-1,24,13,12,-1,24,12,25,-1,25,12,11,-1,25,11,26,-1,9,27,11,-1,11,27,26,-1,27,9,8,-1,27,8,28,-1,28,8,4,-1,28,4,29,-1,0,30,4,-1,4,30,29,-1,2,31,0,-1,0,31,30,-1,24,31,13,-1,13,31,2,-1,32,33,34,-1,34,33,35,-1,33,32,36,-1,33,36,37,-1,37,36,38,-1,37,38,39,-1,39,38,40,-1,39,40,41,-1,41,40,42,-1,41,42,43,-1,43,42,44,-1,43,44,45,-1,45,44,46,-1,45,46,47,-1,47,46,48,-1,47,48,49,-1,49,48,50,-1,49,50,51,-1,51,50,52,-1,51,52,53,-1,53,52,54,-1,53,54,55,-1,55,54,56,-1,55,56,57,-1,57,56,58,-1,57,58,59,-1,59,58,60,-1,59,60,61,-1,61,60,62,-1,61,62,63,-1,63,62,64,-1,63,64,65,-1,66,67,64,-1,64,67,65,-1,66,34,67,-1,67,34,35,-1,46,44,68,-1,68,44,42,-1,68,42,69,-1,69,42,40,-1,69,40,70,-1,70,40,38,-1,70,38,71,-1,71,38,36,-1,71,36,72,-1,72,36,32,-1,72,32,73,-1,73,32,34,-1,73,34,74,-1,74,34,66,-1,74,66,75,-1,75,66,64,-1,75,64,76,-1,76,64,62,-1,76,62,77,-1,77,62,60,-1,77,60,78,-1,78,60,58,-1,78,58,79,-1,79,58,56,-1,79,56,80,-1,80,56,54,-1,80,54,81,-1,81,54,52,-1,81,52,82,-1,82,52,50,-1,82,50,83,-1,83,50,48,-1,83,48,84,-1,84,48,46,-1,84,46,68,-1,75,85,74,-1,74,85,86,-1,85,75,76,-1,85,76,87,-1,87,76,77,-1,87,77,88,-1,88,77,78,-1,88,78,89,-1,89,78,79,-1,89,79,90,-1,90,79,80,-1,90,80,91,-1,91,80,81,-1,91,81,92,-1,92,81,82,-1,92,82,93,-1,93,82,83,-1,93,83,94,-1,94,83,84,-1,94,84,95,-1,95,84,68,-1,95,68,96,-1,96,68,69,-1,96,69,97,-1,97,69,70,-1,97,70,98,-1,98,70,71,-1,98,71,99,-1,99,71,72,-1,99,72,100,-1,73,101,72,-1,72,101,100,-1,86,101,74,-1,74,101,73,-1,102,103,104,-1,104,103,105,-1,106,107,102,-1,102,107,103,-1,108,109,106,-1,106,109,107,-1,110,111,108,-1,108,111,109,-1,112,113,110,-1,110,113,111,-1,114,115,112,-1,112,115,113,-1,116,117,114,-1,114,117,115,-1,118,119,116,-1,116,119,117,-1,120,121,118,-1,118,121,119,-1,122,123,120,-1,120,123,121,-1,124,125,122,-1,122,125,123,-1,124,104,125,-1,125,104,105,-1,104,124,122,-1,122,120,104,-1,104,120,118,-1,104,118,102,-1,108,106,110,-1,110,106,102,-1,110,102,112,-1,112,102,118,-1,112,118,114,-1,114,118,116,-1,126,127,128,-1,126,128,129,-1,128,130,129,-1,129,130,131,-1,129,131,132,-1,132,131,133,-1,132,133,134,-1,134,133,135,-1,134,135,136,-1,136,135,137,-1,136,137,138,-1,138,137,139,-1,138,139,140,-1,140,139,141,-1,140,141,142,-1,142,141,143,-1,142,143,144,-1,144,143,145,-1,144,145,146,-1,146,145,147,-1,146,147,148,-1,148,147,149,-1,148,149,150,-1,150,149,151,-1,150,151,152,-1,152,151,153,-1,152,153,154,-1,154,153,155,-1,154,155,156,-1,156,155,157,-1,156,157,158,-1,158,157,159,-1,158,159,160,-1,161,162,159,-1,159,162,160,-1,162,161,163,-1,162,163,164,-1,164,163,165,-1,164,165,166,-1,166,165,167,-1,166,167,168,-1,168,167,169,-1,168,169,170,-1,170,169,171,-1,170,171,172,-1,172,171,173,-1,172,173,174,-1,174,173,175,-1,174,175,176,-1,176,175,177,-1,176,177,178,-1,178,177,179,-1,178,179,180,-1,180,179,181,-1,180,181,182,-1,182,181,183,-1,182,183,184,-1,184,183,185,-1,184,185,186,-1,186,185,187,-1,186,187,188,-1,188,187,189,-1,188,189,190,-1,190,189,191,-1,190,191,192,-1,192,191,193,-1,192,193,194,-1,194,193,195,-1,194,195,196,-1,196,195,197,-1,196,197,198,-1,198,197,199,-1,198,199,200,-1,201,202,199,-1,199,202,200,-1,203,202,204,-1,204,202,201,-1,203,204,205,-1,205,204,206,-1,205,206,207,-1,207,206,128,-1,207,128,127,-1,191,128,193,-1,193,128,206,-1,193,206,195,-1,195,206,204,-1,195,204,197,-1,197,204,201,-1,197,201,199,-1,161,159,163,-1,163,159,157,-1,163,157,165,-1,165,157,155,-1,165,155,167,-1,167,155,153,-1,167,153,169,-1,169,153,151,-1,169,151,171,-1,171,151,149,-1,171,149,173,-1,173,149,147,-1,173,147,175,-1,175,147,145,-1,175,145,177,-1,177,145,143,-1,177,143,179,-1,179,143,141,-1,179,141,181,-1,181,141,139,-1,181,139,183,-1,183,139,137,-1,183,137,185,-1,185,137,135,-1,185,135,187,-1,187,135,133,-1,187,133,189,-1,189,133,131,-1,189,131,191,-1,191,131,130,-1,191,130,128,-1,208,209,210,-1,210,209,211,-1,212,213,208,-1,208,213,209,-1,214,215,212,-1,212,215,213,-1,216,217,214,-1,214,217,215,-1,218,219,216,-1,216,219,217,-1,218,210,219,-1,219,210,211,-1,212,208,214,-1,214,208,210,-1,214,210,216,-1,216,210,218,-1,
        ]
    }
}
Shape{
    appearance Appearance {
        material  Material 	{
            diffuseColor 0.10980392156862745 0.10980392156862745 0.10980392156862745
            specularColor 0.0784313725490196 0.0784313725490196 0.0784313725490196
            ambientIntensity 0.1098
            transparency 0.0
            shininess 0.5
        }
    }
    geometry IndexedFaceSet {
        ccw TRUE
        solid FALSE
        coord DEF co Coordinate {
            point [
                -0.1149 -0.7281 0.0, -0.1412 -0.7281 0.0, -0.1266 -0.6953 0.0, -0.1294 -0.6953 0.0, -0.1274 -0.6925 0.0, -0.1287 -0.6925 0.0, -0.1279 -0.6897 0.0, -0.1282 -0.6897 0.0, -0.0346 -0.6888 0.0, -0.0346 -0.7502 0.0, -0.0462 -0.6888 0.0, -0.0458 -0.7502 0.0, -0.0541 -0.7495 0.0, -0.0769 -0.7187 0.0, -0.0762 -0.7109 0.0, -0.0744 -0.7047 0.0, -0.0556 -0.6898 0.0, -0.0607 -0.7474 0.0, -0.0661 -0.7442 0.0, -0.0705 -0.7398 0.0, -0.0738 -0.7344 0.0, -0.0762 -0.727 0.0, -0.0716 -0.6998 0.0, -0.0678 -0.6958 0.0, -0.0621 -0.692 0.0
            ]
        }
        coordIndex [
            0,1,2,-1,2,1,3,-1,2,3,4,-1,4,3,5,-1,4,5,6,-1,6,5,7,-1,8,9,10,-1,10,9,11,-1,10,11,12,-1,13,14,10,-1,10,14,15,-1,10,15,16,-1,12,17,10,-1,10,17,18,-1,10,18,19,-1,19,20,10,-1,10,20,21,-1,10,21,13,-1,22,23,15,-1,15,23,24,-1,15,24,16,-1,
        ]
    }
}
Shape{
    appearance Appearance {
        material  Material 	{
            diffuseColor 0.7764705882352941 0.7568627450980392 0.7372549019607844
            specularColor 0.38823529411764707 0.3764705882352941 0.3686274509803922
            ambientIntensity 0.7605
            transparency 0.0
            shininess 0.5
        }
    }
    geometry IndexedFaceSet {
        ccw TRUE
        solid FALSE
        coord DEF co Coordinate {
            point [
                -0.3366 -1.1614 0.0787, -0.3366 -1.1614 0.0, -0.1634 -1.1614 0.0787, -0.1634 -1.1614 0.0, -0.1634 -0.9843 0.0787, -0.3366 -0.9843 0.0787, -0.3366 -0.9843 0.0, -0.1634 -0.9843 0.0, -0.8366 1.1614 0.0, -0.6634 1.1614 0.0, -0.8366 1.1614 0.0787, -0.6634 1.1614 0.0787, -0.8366 1.2126 0.0, -0.6634 1.2126 0.0, -0.8366 1.2126 0.0787, -0.6634 1.2126 0.0787, -0.3366 1.1614 0.0, -0.1634 1.1614 0.0, -0.3366 1.1614 0.0787, -0.1634 1.1614 0.0787, -0.3366 1.2126 0.0, -0.1634 1.2126 0.0, -0.3366 1.2126 0.0787, -0.1634 1.2126 0.0787, 0.1634 1.1614 0.0, 0.3366 1.1614 0.0, 0.1634 1.1614 0.0787, 0.3366 1.1614 0.0787, 0.1634 1.2126 0.0, 0.3366 1.2126 0.0, 0.1634 1.2126 0.0787, 0.3366 1.2126 0.0787, 0.6634 1.1614 0.0, 0.8366 1.1614 0.0, 0.6634 1.1614 0.0787, 0.8366 1.1614 0.0787, 0.6634 1.2126 0.0, 0.8366 1.2126 0.0
            ]
        }
        coordIndex [
            0,1,2,-1,2,1,3,-1,2,4,0,-1,0,4,5,-1,5,6,0,-1,0,6,1,-1,3,7,2,-1,2,7,4,-1,5,4,6,-1,6,4,7,-1,3,1,7,-1,7,1,6,-1,8,9,10,-1,10,9,11,-1,8,12,9,-1,9,12,13,-1,10,14,8,-1,8,14,12,-1,14,15,12,-1,12,15,13,-1,9,13,11,-1,11,13,15,-1,15,14,11,-1,11,14,10,-1,16,17,18,-1,18,17,19,-1,16,20,17,-1,17,20,21,-1,22,20,18,-1,18,20,16,-1,22,23,20,-1,20,23,21,-1,17,21,19,-1,19,21,23,-1,23,22,19,-1,19,22,18,-1,24,25,26,-1,26,25,27,-1,24,28,25,-1,25,28,29,-1,30,28,26,-1,26,28,24,-1,30,31,28,-1,28,31,29,-1,25,29,27,-1,27,29,31,-1,31,30,27,-1,27,30,26,-1,32,33,34,-1,34,33,35,-1,32,36,33,-1,33,36,37,-1,
        ]
    }
}
Shape{
    appearance Appearance {
        material  Material 	{
            diffuseColor 0.10980392156862745 0.10980392156862745 0.10980392156862745
            specularColor 0.0784313725490196 0.0784313725490196 0.0784313725490196
            ambientIntensity 0.1098
            transparency 0.0
            shininess 0.5
        }
    }
    geometry IndexedFaceSet {
        ccw TRUE
        solid FALSE
        coord DEF co Coordinate {
            point [
                0.6634 1.2126 0.0787, 0.6634 1.2126 0.0, 0.6634 1.1614 0.0787, 0.6634 1.1614 0.0
            ]
        }
        coordIndex [
            0,1,2,-1,2,1,3,-1,
        ]
    }
}
Shape{
    appearance Appearance {
        material  Material 	{
            diffuseColor 0.7764705882352941 0.7568627450980392 0.7372549019607844
            specularColor 0.38823529411764707 0.3764705882352941 0.3686274509803922
            ambientIntensity 0.7605
            transparency 0.0
            shininess 0.5
        }
    }
    geometry IndexedFaceSet {
        ccw TRUE
        solid FALSE
        coord DEF co Coordinate {
            point [
                0.6634 1.2126 0.0787, 0.8366 1.2126 0.0787, 0.6634 1.2126 0.0, 0.8366 1.2126 0.0, 0.8366 1.1614 0.0, 0.8366 1.1614 0.0787, 0.6634 1.1614 0.0787, -0.999 -0.4114 0.0, -0.999 -0.3338 0.0, -0.999 -0.4114 0.0787, -0.999 -0.3338 0.0787, -1.0502 -0.4114 0.0, -1.0502 -0.3338 0.0, -1.0502 -0.4114 0.0787, -1.0502 -0.3338 0.0787, 0.999 -0.3338 0.0, 0.999 -0.4114 0.0, 0.999 -0.3338 0.0787, 0.999 -0.4114 0.0787, 1.0502 -0.3338 0.0, 1.0502 -0.4114 0.0
            ]
        }
        coordIndex [
            0,1,2,-1,2,1,3,-1,4,3,5,-1,5,3,1,-1,1,0,5,-1,5,0,6,-1,7,8,9,-1,9,8,10,-1,7,11,8,-1,8,11,12,-1,13,11,9,-1,9,11,7,-1,13,14,11,-1,11,14,12,-1,8,12,10,-1,10,12,14,-1,14,13,10,-1,10,13,9,-1,15,16,17,-1,17,16,18,-1,15,19,16,-1,16,19,20,-1,
        ]
    }
}
Shape{
    appearance Appearance {
        material  Material 	{
            diffuseColor 0.10980392156862745 0.10980392156862745 0.10980392156862745
            specularColor 0.0784313725490196 0.0784313725490196 0.0784313725490196
            ambientIntensity 0.1098
            transparency 0.0
            shininess 0.5
        }
    }
    geometry IndexedFaceSet {
        ccw TRUE
        solid FALSE
        coord DEF co Coordinate {
            point [
                1.0502 -0.3338 0.0787, 1.0502 -0.3338 0.0, 0.999 -0.3338 0.0787, 0.999 -0.3338 0.0
            ]
        }
        coordIndex [
            0,1,2,-1,2,1,3,-1,
        ]
    }
}
Shape{
    appearance Appearance {
        material  Material 	{
            diffuseColor 0.7764705882352941 0.7568627450980392 0.7372549019607844
            specularColor 0.38823529411764707 0.3764705882352941 0.3686274509803922
            ambientIntensity 0.7605
            transparency 0.0
            shininess 0.5
        }
    }
    geometry IndexedFaceSet {
        ccw TRUE
        solid FALSE
        coord DEF co Coordinate {
            point [
                1.0502 -0.3338 0.0787, 1.0502 -0.4114 0.0787, 1.0502 -0.3338 0.0, 1.0502 -0.4114 0.0, 0.999 -0.4114 0.0, 0.999 -0.4114 0.0787, 0.999 -0.3338 0.0787
            ]
        }
        coordIndex [
            0,1,2,-1,2,1,3,-1,4,3,5,-1,5,3,1,-1,1,0,5,-1,5,0,6,-1,
        ]
    }
}